<?xml version="1.0" encoding="UTF-8" standalone="no"?>
<!DOCTYPE svg PUBLIC "-//W3C//DTD SVG 1.1//EN" "http://www.w3.org/Graphics/SVG/1.1/DTD/svg11.dtd">
<svg width="100%" height="100%" viewBox="0 0 545 545" version="1.1" xmlns="http://www.w3.org/2000/svg" xmlns:xlink="http://www.w3.org/1999/xlink" xml:space="preserve" xmlns:serif="http://www.serif.com/" style="fill-rule:evenodd;clip-rule:evenodd;stroke-linejoin:round;stroke-miterlimit:2;">
    <g>
        <path d="M272.1,0C2.1,0 0,121.8 0,272.1C0,422.4 2.1,544.2 272.1,544.2C542.1,544.2 544.2,422.4 544.2,272.1C544.2,121.8 542.1,0 272.1,0Z" style="fill:rgb(51,63,76);fill-rule:nonzero;"/>
        <g transform="matrix(1.17906,0,0,1.17906,-31.6344,-48.7233)">
            <g transform="matrix(3.04492,0,0,3.04492,-491.549,-493.444)">
                <path d="M223.094,226.448L193.474,226.448C193.042,226.448 192.641,226.563 192.271,226.781C191.901,227.005 191.615,227.307 191.411,227.688C191.208,228.068 191.115,228.474 191.135,228.901C191.156,229.333 191.286,229.729 191.521,230.089C194.87,235.182 203.391,244.026 222.87,245.964C223.167,245.995 223.458,245.964 223.745,245.87C224.026,245.776 224.281,245.63 224.505,245.432C224.724,245.234 224.896,244.995 225.021,244.724C225.141,244.448 225.203,244.161 225.203,243.865L225.203,228.563C225.203,228.281 225.151,228.01 225.042,227.75C224.938,227.495 224.781,227.266 224.583,227.068C224.385,226.87 224.156,226.719 223.901,226.609C223.641,226.5 223.37,226.448 223.094,226.448Z" style="fill:white;fill-rule:nonzero;"/>
            </g>
            <g transform="matrix(3.04492,0,0,3.04492,-491.549,-493.444)">
                <path d="M230.875,250.401L230.875,227.734C230.875,227.469 230.927,227.214 231.026,226.964C231.13,226.719 231.276,226.5 231.464,226.313C231.651,226.12 231.87,225.974 232.12,225.875C232.365,225.771 232.62,225.719 232.891,225.719C233.266,225.719 233.63,225.651 233.974,225.505C234.323,225.359 234.63,225.156 234.896,224.891C235.161,224.625 235.37,224.318 235.51,223.969C235.656,223.62 235.729,223.26 235.729,222.885L235.729,222.641C235.729,222.375 235.781,222.115 235.88,221.87C235.984,221.62 236.13,221.406 236.318,221.214C236.505,221.026 236.724,220.88 236.974,220.776C237.219,220.677 237.474,220.625 237.745,220.625L284.385,220.625C284.651,220.625 284.911,220.677 285.156,220.776C285.406,220.88 285.625,221.026 285.813,221.214C286,221.406 286.146,221.62 286.25,221.87C286.349,222.115 286.401,222.375 286.401,222.641L286.401,234.177C286.401,234.547 286.307,234.891 286.12,235.203C285.932,235.521 285.677,235.771 285.354,235.943C282.859,237.307 276.578,241.521 274.042,250.563C273.885,251.109 273.583,251.557 273.125,251.901C272.672,252.245 272.161,252.417 271.589,252.417L232.891,252.417C232.62,252.417 232.365,252.365 232.115,252.266C231.87,252.161 231.651,252.016 231.464,251.828C231.276,251.635 231.13,251.422 231.026,251.172C230.927,250.927 230.875,250.667 230.875,250.401Z" style="fill:white;fill-rule:nonzero;"/>
            </g>
            <g transform="matrix(3.04492,0,0,3.04492,-491.549,-493.444)">
                <path d="M279.865,275.943C273.276,271.922 271.542,264.156 271.12,259.37C271.089,259.005 270.938,258.703 270.672,258.458C270.406,258.208 270.089,258.089 269.729,258.089L238.516,258.089C238.151,258.089 237.833,258.208 237.568,258.458C237.302,258.703 237.151,259.005 237.125,259.37C236.703,264.156 234.964,271.922 228.38,275.943C227.958,276.198 227.625,276.536 227.385,276.964C227.141,277.391 227.021,277.854 227.021,278.344L227.021,280.151C227.021,280.422 227.073,280.688 227.177,280.938C227.281,281.188 227.427,281.411 227.62,281.604C227.813,281.797 228.036,281.948 228.286,282.052C228.542,282.156 228.802,282.208 229.073,282.208L241.589,282.208C241.995,282.208 242.365,282.099 242.703,281.88C243.047,281.661 243.297,281.365 243.464,280.995C244.38,278.938 247.057,274.99 254.12,274.99C261.182,274.99 263.865,278.943 264.781,280.995C264.943,281.365 265.198,281.661 265.536,281.88C265.875,282.099 266.25,282.208 266.651,282.208L279.167,282.208C279.443,282.208 279.703,282.156 279.953,282.052C280.208,281.948 280.427,281.797 280.62,281.604C280.813,281.411 280.964,281.188 281.068,280.938C281.172,280.688 281.224,280.422 281.224,280.151L281.224,278.344C281.224,277.854 281.099,277.391 280.859,276.964C280.615,276.536 280.281,276.198 279.865,275.943Z" style="fill:white;fill-rule:nonzero;"/>
            </g>
        </g>
    </g>
</svg>
